/* XPM */
static char * 2_xpm[] = {
"32 33 478 2",
"  	c None",
". 	c #D6CCCC",
"+ 	c #E7DCDC",
"@ 	c #E7DDDD",
"# 	c #A19FA0",
"$ 	c #B8B1B2",
"% 	c #E8DEDE",
"& 	c #838283",
"* 	c #BCB5B6",
"= 	c #ADA8CD",
"- 	c #868485",
"; 	c #DBD2D2",
"> 	c #6361C8",
", 	c #2225BF",
"' 	c #282CBD",
") 	c #7D7FAE",
"! 	c #B1AEB0",
"~ 	c #E5DBDB",
"{ 	c #4344C4",
"] 	c #2127C1",
"^ 	c #1F25C0",
"/ 	c #727590",
"( 	c #817E7F",
"_ 	c #E5DADA",
": 	c #CAC1C1",
"< 	c #CAC0C0",
"[ 	c #DFD5D5",
"} 	c #E3D8D8",
"| 	c #E3DBE0",
"1 	c #252AC0",
"2 	c #2026C2",
"3 	c #2428C2",
"4 	c #8A8A92",
"5 	c #8C898A",
"6 	c #BFB6B6",
"7 	c #A69E9E",
"8 	c #C1B8B8",
"9 	c #857E7E",
"0 	c #A09898",
"a 	c #B8B0B0",
"b 	c #E4D9D9",
"c 	c #CCC6D8",
"d 	c #1D23C1",
"e 	c #373BC5",
"f 	c #8E8D8C",
"g 	c #C5BDBE",
"h 	c #A49D9D",
"i 	c #CCC2C2",
"j 	c #E6DBDB",
"k 	c #8E8787",
"l 	c #898383",
"m 	c #878181",
"n 	c #D5CBCB",
"o 	c #ACA6D3",
"p 	c #2127C3",
"q 	c #4045B6",
"r 	c #959493",
"s 	c #B4B2B3",
"t 	c #C3BCBD",
"u 	c #D9CFCF",
"v 	c #A39B9B",
"w 	c #B4ABAB",
"x 	c #837D7D",
"y 	c #9F9797",
"z 	c #B1A9A9",
"A 	c #C8BEBE",
"B 	c #8E8CD2",
"C 	c #4A4CA6",
"D 	c #A0A2A1",
"E 	c #858585",
"F 	c #C2BABC",
"G 	c #E1D6D6",
"H 	c #DDD3D3",
"I 	c #BCB3B3",
"J 	c #DED4D4",
"K 	c #6F70CD",
"L 	c #545598",
"M 	c #8A8789",
"N 	c #DCD3D4",
"O 	c #E7DEDE",
"P 	c #5A5CCC",
"Q 	c #64638D",
"R 	c #B7C2D1",
"S 	c #C5CFE4",
"T 	c #C5D0E5",
"U 	c #C8D1E3",
"V 	c #CDD3E1",
"W 	c #DDDADF",
"X 	c #E7DCDD",
"Y 	c #353AC7",
"Z 	c #1F24C1",
"` 	c #7B7C8D",
" .	c #BFC9E1",
"..	c #B9C1DF",
"+.	c #B5C0E2",
"@.	c #B5C1E2",
"#.	c #B4C3E2",
"$.	c #B4C3E4",
"%.	c #B4C3E3",
"&.	c #B4C0E1",
"*.	c #C3CAE0",
"=.	c #D9D8DE",
"-.	c #DBD3DE",
";.	c #1F25C1",
">.	c #2A30C2",
",.	c #8C8D90",
"'.	c #BCBCE3",
").	c #B3C5E4",
"!.	c #BCC8E3",
"~.	c #BDC2DC",
"{.	c #B3BCDD",
"].	c #B2BEE0",
"^.	c #B3C1E2",
"/.	c #B3BEE0",
"(.	c #B2BDDF",
"_.	c #B6BFDD",
":.	c #BDC4DA",
"<.	c #BBCBDB",
"[.	c #C7D0DF",
"}.	c #E6DCDD",
"|.	c #BEB8DA",
"1.	c #1F24C2",
"2.	c #4045C4",
"3.	c #8D8D8E",
"4.	c #D9B9ED",
"5.	c #E4A3F8",
"6.	c #BDBBEC",
"7.	c #B4C6E3",
"8.	c #BBC2D7",
"9.	c #B4B9D8",
"0.	c #AFB9D6",
"a.	c #B0BCD7",
"b.	c #B2BDDB",
"c.	c #BAC0D7",
"d.	c #BEC8D5",
"e.	c #B6CCDD",
"f.	c #ABC3E3",
"g.	c #BBC6DC",
"h.	c #E6DEDE",
"i.	c #9E9AD3",
"j.	c #474AB1",
"k.	c #989898",
"l.	c #D3C6EA",
"m.	c #E9A5F7",
"n.	c #F2B7F4",
"o.	c #ECB2F4",
"p.	c #B6BDEA",
"q.	c #B7C5DB",
"r.	c #B7B9D4",
"s.	c #AEB6D5",
"t.	c #ADB8D8",
"u.	c #AEB8D6",
"v.	c #B6BDD9",
"w.	c #BDC6D4",
"x.	c #BACCD8",
"y.	c #ABC3DE",
"z.	c #A3BBDD",
"A.	c #9BB3DA",
"B.	c #C3D3D8",
"C.	c #7F7ECE",
"D.	c #5052A0",
"E.	c #A8A8A8",
"F.	c #B9C9E4",
"G.	c #C4BAED",
"H.	c #EBB6F3",
"I.	c #F4E5D9",
"J.	c #E4CBE5",
"K.	c #B4C2E4",
"L.	c #BCC1D7",
"M.	c #B1B5D5",
"N.	c #AEB5D6",
"O.	c #ACB6D6",
"P.	c #B5BBD3",
"Q.	c #BBCBD1",
"R.	c #ADC6DC",
"S.	c #A2B8DD",
"T.	c #9AB3DF",
"U.	c #9CCAF1",
"V.	c #A0EAE4",
"W.	c #DDDADB",
"X.	c #6061CC",
"Y.	c #5A5B91",
"Z.	c #C4CEDF",
"`.	c #C4CDE4",
" +	c #BCCCE5",
".+	c #B8C6E7",
"++	c #D2CDE5",
"@+	c #E6F6C6",
"#+	c #D5DFCE",
"$+	c #ACBCD8",
"%+	c #AAB4D7",
"&+	c #B5C0DA",
"*+	c #A7B2D0",
"=+	c #A4B7CC",
"-+	c #B0C8DA",
";+	c #9FB7DD",
">+	c #9AB0E9",
",+	c #98B9F8",
"'+	c #9BC9F7",
")+	c #9ACDEE",
"!+	c #B8C4D3",
"~+	c #4346C9",
"{+	c #6D6E8B",
"]+	c #C5C9DA",
"^+	c #C7C7D8",
"/+	c #C3CCDF",
"(+	c #BECCE2",
"_+	c #BCD2DB",
":+	c #BBE0C3",
"<+	c #B1BAC1",
"[+	c #B7ABAB",
"}+	c #C2A9A9",
"|+	c #C1ACAC",
"1+	c #BFC2D1",
"2+	c #92ACD7",
"3+	c #92AAF4",
"4+	c #95AEF5",
"5+	c #94AEE9",
"6+	c #96ADDA",
"7+	c #97ADD6",
"8+	c #A3B3D2",
"9+	c #DFD7D7",
"0+	c #E4DBE1",
"a+	c #272BC0",
"b+	c #2227BF",
"c+	c #83858E",
"d+	c #C5C7DA",
"e+	c #C8C4D9",
"f+	c #C7C3DA",
"g+	c #C5C4D6",
"h+	c #C7C7D7",
"i+	c #C5CADB",
"j+	c #ADB9D9",
"k+	c #A39091",
"l+	c #C7B0B0",
"m+	c #AA9C9C",
"n+	c #D2BABB",
"o+	c #DEC5C6",
"p+	c #A5B8D8",
"q+	c #9EB0E2",
"r+	c #A2B1D8",
"s+	c #A1B3D8",
"t+	c #A3B3DC",
"u+	c #A3B4DF",
"v+	c #A2B4DD",
"w+	c #D4D2D2",
"x+	c #CFC6DC",
"y+	c #1F23C0",
"z+	c #373BC6",
"A+	c #8B8C8B",
"B+	c #C6D5D6",
"C+	c #C7D3D4",
"D+	c #C5D1D2",
"E+	c #C5CDD1",
"F+	c #C4CAD2",
"G+	c #A4A7BE",
"H+	c #B59E9E",
"I+	c #A89F9F",
"J+	c #CBBFC0",
"K+	c #B39F9E",
"L+	c #B4B4C2",
"M+	c #A9B5CB",
"N+	c #B2BFCF",
"O+	c #AEBDCE",
"P+	c #ADBAD0",
"Q+	c #AAB6CE",
"R+	c #CDCCCE",
"S+	c #AEA9D5",
"T+	c #464BBD",
"U+	c #8D8D8C",
"V+	c #BBDDDD",
"W+	c #BFE3DD",
"X+	c #C0E1DD",
"Y+	c #C3DEDD",
"Z+	c #C0D9DB",
"`+	c #B8D0DA",
" @	c #9DABC7",
".@	c #C1AAAA",
"+@	c #8E8686",
"@@	c #D7CBCB",
"#@	c #AC9A9A",
"$@	c #A69191",
"%@	c #A4A8B9",
"&@	c #B4B1C0",
"*@	c #BDB4BF",
"=@	c #BBB2C1",
"-@	c #B9B2C1",
";@	c #B6B2C3",
">@	c #AFAEC0",
",@	c #C7C5C8",
"'@	c #908ED4",
")@	c #4C52A7",
"!@	c #9F9F9E",
"~@	c #B1D7DE",
"{@	c #A9D9DF",
"]@	c #A3D1DC",
"^@	c #A3C3DD",
"/@	c #B0ADDC",
"(@	c #ADA3E1",
"_@	c #91A8D7",
":@	c #C2B6BB",
"<@	c #BEA8A7",
"[@	c #D0B6B6",
"}@	c #C9B1B1",
"|@	c #C9BDBE",
"1@	c #96ADC7",
"2@	c #B7C8CE",
"3@	c #BFC7C8",
"4@	c #C1C0C0",
"5@	c #BFBBBD",
"6@	c #BCB5BA",
"7@	c #B9B2BB",
"8@	c #BBB9BC",
"9@	c #7171D1",
"0@	c #2126C1",
"a@	c #555798",
"b@	c #AEB2AD",
"c@	c #BEC6E1",
"d@	c #C4A0DE",
"e@	c #DE8BD7",
"f@	c #F57CD6",
"g@	c #E883DB",
"h@	c #A4ABD9",
"i@	c #9FBCD4",
"j@	c #95AAC9",
"k@	c #A0A7B8",
"l@	c #BBB4BE",
"m@	c #C0BCCC",
"n@	c #8797B6",
"o@	c #A1E5D1",
"p@	c #A3EBE5",
"q@	c #A9C9DD",
"r@	c #B6CACE",
"s@	c #BFCBCB",
"t@	c #C1C9C5",
"u@	c #B1B4B5",
"v@	c #D0CACA",
"w@	c #5557CA",
"x@	c #2025C2",
"y@	c #60638D",
"z@	c #D8CFD5",
"A@	c #ECD1A3",
"B@	c #FA84CB",
"C@	c #D88BD2",
"D@	c #9EB1D5",
"E@	c #A1C0D8",
"F@	c #AFCCCD",
"G@	c #B2B6C5",
"H@	c #959FC8",
"I@	c #8B98C7",
"J@	c #969CCA",
"K@	c #B8BBC6",
"L@	c #ACC7D0",
"M@	c #A3EDE8",
"N@	c #A0DAF6",
"O@	c #A0C1EB",
"P@	c #AAC2D5",
"Q@	c #B6CBCD",
"R@	c #A0A6A7",
"S@	c #1F24C0",
"T@	c #76798B",
"U@	c #D9C0BC",
"V@	c #BC9AD0",
"W@	c #97B5D5",
"X@	c #9FBFD5",
"Y@	c #A9CACD",
"Z@	c #B0BEC0",
"`@	c #A5A7C3",
" #	c #96A0CC",
".#	c #939ECC",
"+#	c #979DCC",
"@#	c #AFAAC3",
"##	c #B8C4CB",
"$#	c #A4C5DA",
"%#	c #9CD5F7",
"&#	c #98BCF8",
"*#	c #9DB2F1",
"=#	c #9DB1D7",
"-#	c #B2B0AF",
";#	c #DED4DD",
">#	c #2026C0",
",#	c #2B2EC5",
"'#	c #888988",
")#	c #C3C8D0",
"!#	c #98B2CD",
"~#	c #9ABED0",
"{#	c #A7C7CB",
"]#	c #ACC2BB",
"^#	c #A8ACB8",
"/#	c #979DBD",
"(#	c #8D9CC4",
"_#	c #8C9CC9",
":#	c #8D99C9",
"<#	c #9D9EBB",
"[#	c #B6B9BC",
"}#	c #B2C8C8",
"|#	c #9FBBDB",
"1#	c #99B6F5",
"2#	c #91AAF1",
"3#	c #9297A5",
"4#	c #E1D8D8",
"5#	c #BFBBDA",
"6#	c #4245C4",
"7#	c #8A8A89",
"8#	c #B5BEC3",
"9#	c #9FC1C7",
"0#	c #AAC4B9",
"a#	c #A7B1AD",
"b#	c #9A9DB2",
"c#	c #8D96B7",
"d#	c #8497BE",
"e#	c #8296C1",
"f#	c #8395C1",
"g#	c #9297BB",
"h#	c #ACAAB2",
"i#	c #B6C2BD",
"j#	c #AEC8C6",
"k#	c #9AB5DA",
"l#	c #9198B0",
"m#	c #C9C3C3",
"n#	c #9F9CD1",
"o#	c #4C50B3",
"p#	c #908E8F",
"q#	c #ACB2B5",
"r#	c #A7B4AF",
"s#	c #9A9FA7",
"t#	c #8E93AB",
"u#	c #8391B1",
"v#	c #7D92B6",
"w#	c #7C92BB",
"x#	c #7E92BC",
"y#	c #8992B7",
"z#	c #9F9CAE",
"A#	c #B0B7AC",
"B#	c #B0C1BC",
"C#	c #7E8587",
"D#	c #ADAAAB",
"E#	c #E4DADA",
"F#	c #827FCE",
"G#	c #2027C1",
"H#	c #2027C2",
"I#	c #5454A6",
"J#	c #9FA19D",
"K#	c #ADAEAE",
"L#	c #9FA2AA",
"M#	c #959CB0",
"N#	c #7D8CAD",
"O#	c #7A8FB4",
"P#	c #7B91B8",
"Q#	c #7C91BB",
"R#	c #838FB3",
"S#	c #9C9FB3",
"T#	c #9B9FA0",
"U#	c #868B8E",
"V#	c #8A8B8C",
"W#	c #8E8E8D",
"X#	c #8D8D8D",
"Y#	c #8A8A8A",
"Z#	c #939090",
"`#	c #9F9B9B",
" $	c #B0A9AB",
".$	c #7C7EB5",
"+$	c #4A53BD",
"@$	c #333CBC",
"#$	c #5A5B94",
"$$	c #B1B3AF",
"%$	c #A3A5A5",
"&$	c #A6A9AA",
"*$	c #91989D",
"=$	c #8A9099",
"-$	c #8B9298",
";$	c #9A9D9E",
">$	c #949497",
",$	c #A6A7A8",
"'$	c #9A9A99",
")$	c #8F8E8D",
"!$	c #8C8E8C",
"~$	c #7D7F7D",
"                                                                ",
"                    . + + + @                                   ",
"                  # $ + + + + + + + @ @ % +                     ",
"                  & * + + + + + + + + + + + + + + @ + =         ",
"                  - ; + + + + + + + + + + + + + + + + > , ' )   ",
"                  ! ~ + + + + + + + + + + + + + + + + { ] ^ /   ",
"                  ( + + + + _ : < [ } + + + + + + + | 1 2 3 4   ",
"                  5 + + + + 6 7 8 9 0 a b + + + + + c d 2 e f   ",
"                  g + + + + h i j k [ l m n + + + + o p 2 q r   ",
"                s t + + + + u v w x y z x A + + + + B 2 2 C D   ",
"                E F + + + + + + j } G H I J + + + + K 2 2 L     ",
"                M N O + + + + + + + + + + + + + + + P 2 2 Q     ",
"                R S T U V W @ + + + + + + + + + + X Y 2 Z `     ",
"             ...+.@.#.$.%.&.*.=.+ + + + + + + + + -.;.2 >.,.    ",
"        '.).!.~.{.].^./.(._.:.<.[.}.+ + + + + + + |.1.2 2.3.    ",
"      4.5.6.7.8.9.0.a.b._.c.d.e.f.g.h.+ + + + + + i.2 2 j.k.    ",
"    l.m.n.o.p.q.r.s.t.u.v.w.x.y.z.A.B.+ + + + + + C.2 2 D.E.    ",
"    F.G.H.I.J.K.L.M.N.O.P.Q.R.S.T.U.V.W.+ + + + + X.2 2 Y.      ",
"  Z.`. +.+++@+#+$+%+&+*+=+-+;+>+,+'+)+!++ + + + + ~+2 Z {+      ",
"  ]+^+]+/+(+_+:+<+[+}+|+1+2+3+4+5+6+7+8+9++ + + 0+a+2 b+c+      ",
"  d+e+f+g+h+i+j+k+l+m+n+o+p+q+r+s+t+u+v+w++ + + x+y+2 z+A+      ",
"  B.B+C+D+E+F+G+H+I++ J+K+L+M+N+O+O+P+Q+R++ + + S+2 2 T+U+      ",
"  V+W+X+Y+Z+`+ @.@+@@@#@$@%@&@*@=@-@;@>@,@+ + + '@2 2 )@!@      ",
"  ~@{@]@^@/@(@_@:@<@[@}@|@1@2@3@4@5@6@7@8@+ + + 9@2 0@a@b@      ",
"  c@d@e@f@g@h@i@j@k@l@m@n@o@p@q@r@s@t@u@v@+ + + w@2 x@y@        ",
"  z@A@B@C@D@E@F@G@H@I@J@K@L@M@N@O@P@Q@R@~ + + + Y 2 S@T@        ",
"    U@V@W@X@Y@Z@`@ #.#+#@###$#%#&#*#=#-#+ + + ;#>#2 ,#'#        ",
"    )#!#~#{#]#^#/#(#_#:#<#[#}#|#1#2#3#4#+ + + 5#;.2 6#7#        ",
"      8#9#0#a#b#c#d#e#f#g#h#i#j#k#l#m#+ + + + n#2 2 o#p#        ",
"        q#r#s#t#u#v#w#x#y#z#A#B#C#D#E#+ + + + F#G#H#I#J#        ",
"          K#L#M#N#O#P#Q#R#S#T#U#V#W#X#Y#Z#`# $.$+$@$#$$$        ",
"              %$&$*$=$-$;$>$                ,$'$)$!$~$          ",
"                                                                "};
